<svg id="Layer_4" data-name="Layer 4" xmlns="http://www.w3.org/2000/svg" viewBox="0 0 647.62 1038.78"><defs><style>.cls-1,.cls-2{fill:#fff;}.cls-2{fill-rule:evenodd;}</style></defs><path class="cls-1" d="M727.81,403c.36,4.37.76,7,.76,9.68,0,40.53,0,81.06.08,121.59,0,10.78-3,19.34-14.4,22.5-14.77,4.09-26.68-4.69-26.89-20.21-.31-23-.05-46-.11-69-.06-18-5.59-23.77-23.84-23.81-60.79-.13-121.59,0-182.38-.07-21,0-24.1-2.63-27.74-22.72-1.94-10.74-8.62-15.59-22.38-15.61q-83-.12-166,0c-6.23,0-12.47-.1-18.7,0-14.9.34-21.47,6.55-21.52,21.52-.17,59.23-.37,118.47.35,177.7.08,6.88,4.48,14.94,9.28,20.33,28.48,32,57.51,63.58,86.74,94.94,6.91,7.41,9.67,15.13,9.2,25.23q-6.11,131.37-11.59,262.78c-.34,7.78-.95,15.61-.53,23.36.56,10.28,6.17,16.56,16.8,17.5,3.48.3,7,.22,10.51.22H757c24,0,28.79-5.06,27.71-29Q778.34,878.7,772,737.38c-.53-11.46,2.22-21.12,9.44-30.29C803.84,678.63,826,650,847.51,620.78a40.58,40.58,0,0,0,7.62-22.27c.49-99.38.35-198.76.31-298.13,0-18.91-5.36-24.42-24.38-24.43q-156.09-.12-312.17,0c-18.82,0-24,5.41-24.1,24.69-.13,25.33-.07,50.67,0,76,0,21,5.39,26.39,26.16,26.4q95.87,0,191.74,0Z" transform="translate(-214.01 -20.2)"/><path class="cls-2" d="M400.65,1058.67l-35.49.18-17.74.08-4.4,0c-1.5,0-3.07,0-4.73,0-.83,0-1.68,0-2.55-.1s-1.73-.11-2.78-.24l-1.5-.19-1.54-.29a26.92,26.92,0,0,1-3.12-.79,26,26,0,0,1-12-7.6,25.53,25.53,0,0,1-4-6.1,30.1,30.1,0,0,1-2.11-6.37c-.22-1-.37-2.06-.51-3.08l-.14-1.5-.06-.75,0-.64c-.09-1.64-.13-3.26-.15-4.86,0-3.21.06-6.33.18-9.37l.75-17.69.72-17.68Q312.4,911,315.28,841q1.49-35,2.94-69.62.38-8.67.74-17.31.19-4.32.37-8.64l.06-1.83c0-.56,0-1.08,0-1.61a25.28,25.28,0,0,0-.28-3,18.24,18.24,0,0,0-1.59-5.27,22.44,22.44,0,0,0-3.17-4.89c-.32-.41-.7-.81-1-1.21l-.66-.71-.73-.79L309,723l-5.86-6.28q-23.42-25.15-46.27-50.26-11.4-12.57-22.65-25.13L228.58,635l-2.87-3.25a48.91,48.91,0,0,1-3.26-4.17,52.28,52.28,0,0,1-5.2-9.21,37.63,37.63,0,0,1-3-11.39c-.19-2.62-.1-3.52-.12-5V597.8q0-4.17,0-8.32,0-8.31,0-16.59,0-16.54,0-32.95,0-32.81,0-65,0-16.08,0-32,0-8,0-15.85a51.36,51.36,0,0,1,1-10.08,28.93,28.93,0,0,1,5.06-11.28c.69-.9,1.48-1.75,2.25-2.58s1.7-1.53,2.59-2.24,1.83-1.25,2.77-1.8,1.88-1,2.82-1.39a36.57,36.57,0,0,1,10.58-2.6c1.67-.21,3.21-.23,4.8-.31h11.81l30.9.09,118.91.54,14.35.08,7.12,0h1.78l2.07.05c.7,0,1.41.05,2.14.12s1.43.09,2.18.2a36.16,36.16,0,0,1,9.32,2.26,25,25,0,0,1,14.87,15.66c.28.8.48,1.57.72,2.36s.34,1.53.51,2.29.25,1.26.36,1.83l.29,1.61c.2,1.09.43,2.06.64,3.1s.48,1.9.71,2.84a19.41,19.41,0,0,0,1.53,3.91,2.46,2.46,0,0,0,1.15,1.05,12,12,0,0,0,3.74.94c.81.15,1.8.21,2.76.29s2,.1,3,.16c2.09.07,4.21.09,6.5.1l13.43.1,102.3.83,47.47.47,11.45.12,5.69.06,3.12.11c1.05,0,2.13.16,3.2.25s2.2.29,3.3.45,2.3.49,3.43.75c.59.16,1.2.37,1.79.57a15.77,15.77,0,0,1,1.79.67,21,21,0,0,1,3.62,1.91,20.3,20.3,0,0,1,3.39,2.67,17.23,17.23,0,0,1,1.45,1.63,12.17,12.17,0,0,1,1.28,1.72c.37.59.73,1.18,1.08,1.79s.56,1.19.83,1.79a24.15,24.15,0,0,1,1.24,3.54,48,48,0,0,1,1.45,12.6c0,1,0,1.89,0,2.77l0,2.65q0,2.65-.06,5.28-.1,10.5-.22,20.64-.22,20.25-.44,39c0,4.94,1.7,9.22,4.65,11.81s7.19,3.65,11.64,3a20.2,20.2,0,0,0,6.19-1.85,10.37,10.37,0,0,0,4.09-3.55,15,15,0,0,0,2.2-5.5,36.08,36.08,0,0,0,.66-6.84c.76-41.63,1.6-74.35,2.48-96.66.43-11.13.91-19.76,1.34-25.42.11-2.77,0-5,.16-6.49s.28-2.25.52-2.27.54.7.92,2.13A53.77,53.77,0,0,1,730,411.7c.51,5.86.94,14.34,1.41,25.51.91,22.31,1.78,55,2.6,96.64a47.66,47.66,0,0,1-.56,8.9,26.13,26.13,0,0,1-3.51,9.58,22.27,22.27,0,0,1-3.52,4.32,23.52,23.52,0,0,1-4.5,3.26,31.38,31.38,0,0,1-9.92,3.42,28.2,28.2,0,0,1-10.93-.16,24.61,24.61,0,0,1-10.57-5.09,25.5,25.5,0,0,1-7.12-9.61,31.26,31.26,0,0,1-2.47-11.34q-.3-18.87-.62-39.24-.15-10.17-.29-20.69c0-1.75,0-3.51-.07-5.28,0-.89,0-1.77,0-2.66s0-1.8-.06-2.57A33.85,33.85,0,0,0,678.7,458a9.87,9.87,0,0,0-.6-1.58c-.11-.22-.2-.47-.31-.68a4.6,4.6,0,0,1-.37-.53,1.44,1.44,0,0,0-.37-.46c-.14-.13-.22-.31-.38-.42a5.79,5.79,0,0,0-1-.69,7.52,7.52,0,0,0-1.27-.62,4.15,4.15,0,0,0-.82-.27c-.28-.09-.55-.19-.86-.27-.68-.11-1.29-.28-2-.38s-1.45-.21-2.24-.26-1.59-.1-2.41-.13l-2.51,0-5.65.05-11.46.11-47.46.43L496.73,453l-13.43.08c-2.21,0-4.6,0-7,0-1.25-.06-2.42,0-3.75-.15s-2.57-.16-4-.37a30.32,30.32,0,0,1-9.4-2.54,15.8,15.8,0,0,1-2.61-1.45,18,18,0,0,1-2.48-1.88,23.74,23.74,0,0,1-2.17-2.21c-.6-.77-1.21-1.57-1.75-2.36a36.4,36.4,0,0,1-3.83-8.77c-.35-1.29-.73-2.62-1-3.87s-.58-2.5-.81-3.69l-.35-1.8c-.12-.57-.25-1.32-.33-1.59s-.15-.77-.26-1.1-.2-.68-.31-1a6.67,6.67,0,0,0-1.47-2.53,6.51,6.51,0,0,0-2.36-1.43,17.16,17.16,0,0,0-4.38-1c-.42-.06-.9-.06-1.35-.1s-.91-.06-1.41-.06l-1.47,0H429l-7.13,0-14.34.07-118.9.48-30.71.11-7.67,0-3.83,0c-1,.07-2.07.08-3,.22a15.85,15.85,0,0,0-4.55,1.05,4.23,4.23,0,0,0-1.89,1.39,8.11,8.11,0,0,0-1.19,3,30.6,30.6,0,0,0-.47,5.58q0,7.89.07,15.82.06,15.87.13,31.92.22,63.77.46,130.07a13,13,0,0,0,.42,2.11,23.14,23.14,0,0,0,.91,2.54,31.72,31.72,0,0,0,3,5.32,29.15,29.15,0,0,0,1.9,2.43l2.69,3,5.58,6.25q11.17,12.48,22.54,25,22.72,25,46.06,50.12l5.83,6.28,2.93,3.14.73.79.8.87c.59.67,1.19,1.32,1.76,2a44,44,0,0,1,6.1,9.55,41.18,41.18,0,0,1,2.11,5.51,44.35,44.35,0,0,1,1.26,5.67,47.2,47.2,0,0,1,.51,5.59c0,.9.05,1.83,0,2.71l-.09,2.47-.39,8.64q-.39,8.64-.79,17.3Q338.3,807,336.7,842q-3.29,69.88-6.62,140.65l-.84,17.67q-.45,8.85-.89,17.7c-.14,2.86-.24,5.64-.23,8.35,0,1.35,0,2.68.08,4l0,.47,0,.35.05.71c.07.44.12.88.2,1.29a7.46,7.46,0,0,0,1.45,3.36,4.07,4.07,0,0,0,1.1.93,6.67,6.67,0,0,0,1.73.8c.37.09.72.23,1.17.3l.63.13.7.09c.42.07,1,.12,1.64.16s1.24.07,1.88.09c1.3,0,2.68,0,4.14,0h4.47l17.74.08,35.5.18L672,1040.8l62,.36,15.18.09,7.55,0c2.42,0,4.76,0,7-.15a43.34,43.34,0,0,0,6.25-.75,12.21,12.21,0,0,0,4.12-1.56,5.08,5.08,0,0,0,1.87-2.48,19,19,0,0,0,1.15-5.13,59.32,59.32,0,0,0,.28-6.53c0-2.28-.11-4.6-.21-7.09q-.28-7.32-.57-14.6-.55-14.55-1.12-28.89-1.12-28.68-2.21-56.6c-1.44-37.25-2.85-73.56-4.24-109.17q-1-26.72-2-52.94-.25-6.57-.51-13.1l-.12-3.27-.06-1.65,0-1.79a58.5,58.5,0,0,1,.37-7.22,47.17,47.17,0,0,1,4-14.15,48.79,48.79,0,0,1,3.54-6.38c.68-1,1.35-2,2.08-2.94l1.08-1.4,1-1.26c21.5-27,42.49-53.73,62.74-80.79l1.89-2.54c.3-.41.67-.88.92-1.23s.53-.73.77-1.12a36.8,36.8,0,0,0,2.69-4.9,36,36,0,0,0,3-10.72l.12-1.35,0-1.37,0-3.16,0-6.33.09-12.66L851,525.5c.46-67.45.91-135.11,1.39-205q0-6.56.08-13.12c0-2.19,0-4.39,0-6.58l0-3.2c0-1.06-.12-2.09-.17-3.14s-.22-2.05-.35-3.06l-.3-1.47-.14-.73-.21-.69a12.69,12.69,0,0,0-2.4-4.85,10.23,10.23,0,0,0-4.26-3.06,6.86,6.86,0,0,0-1.34-.49c-.47-.14-.9-.32-1.4-.42a28.42,28.42,0,0,0-3-.56,99,99,0,0,0-13-.55l-13.42-.07-27.06-.13L674,277.88l-117.7-.52-30.58-.12c-5.15,0-10.31-.22-15.27.47a22.13,22.13,0,0,0-7,2.1,11.48,11.48,0,0,0-4.9,5c-2.16,4.39-2.51,9.69-2.65,14.86s-.06,10.55-.09,15.86q-.06,15.94-.13,32.17,0,8.11-.06,16.3,0,4.1,0,8.2v4.12l.06,4.09a51.74,51.74,0,0,0,.88,8.09,18.61,18.61,0,0,0,3,7.34,13.39,13.39,0,0,0,6.34,4.57,35.78,35.78,0,0,0,8,1.64c2.76.22,5.54.3,8.36.3l8.48,0,17.06.06,34.62.12,145.41.46-145.41.45-34.62.11-17.07.06-8.47,0c-2.82,0-5.66-.05-8.49-.26a36.35,36.35,0,0,1-8.39-1.65,15,15,0,0,1-7.05-5,20.18,20.18,0,0,1-3.3-7.92,52.65,52.65,0,0,1-1-8.34l-.09-4.16,0-4.11c0-2.75,0-5.48,0-8.21q0-8.19,0-16.3-.06-16.23-.11-32.18,0-8,0-15.89c0-1.33,0-2.66.14-4,.05-.67.07-1.33.15-2l.24-2a26.42,26.42,0,0,1,2.26-7.88,13.94,13.94,0,0,1,5.82-6.05,24,24,0,0,1,7.8-2.43l2-.27c.66-.07,1.32-.1,2-.15,1.32-.12,2.63-.13,3.94-.16,2.6-.05,5.16,0,7.73-.05l30.58-.13L674,274l111.45-.53,27.06-.14,13.43-.07a104.75,104.75,0,0,1,13.71.46c1.17.11,2.37.4,3.55.63.59.12,1.19.34,1.79.51a12.25,12.25,0,0,1,1.78.64,15.84,15.84,0,0,1,6.43,4.57,18.18,18.18,0,0,1,3.55,6.86l.28.9.19.88.37,1.77c.17,1.17.34,2.34.45,3.5s.19,2.31.22,3.45l.07,3.39,0,6.59.06,13.12c.32,69.86.64,137.53.95,205q.12,25.31.25,50.59l.07,12.66,0,6.33v3.17c0,.53,0,1.2,0,1.8l-.13,1.81A45.66,45.66,0,0,1,856,615.52a43.72,43.72,0,0,1-3.34,6.25c-.31.51-.67,1-1,1.5s-.63.88-1,1.33l-1.87,2.58c-20,27.43-40.72,54.54-61.93,81.81l-1,1.28-.88,1.18c-.59.76-1.11,1.57-1.64,2.36a39.3,39.3,0,0,0-2.68,5,36.17,36.17,0,0,0-2.87,10.85,50.5,50.5,0,0,0-.23,5.79l.06,1.48.08,1.61.16,3.26q.35,6.54.67,13.09,1.35,26.24,2.72,52.91c1.82,35.6,3.68,71.89,5.59,109.12q1.42,27.93,2.89,56.58.74,14.34,1.48,28.87.36,7.27.74,14.6c.12,2.4.27,5,.31,7.6a74.23,74.23,0,0,1-.27,8.19,33.36,33.36,0,0,1-2.08,9.26,21,21,0,0,1-2.75,5,20.47,20.47,0,0,1-4.28,4.19,26.88,26.88,0,0,1-9.58,4.09,57.08,57.08,0,0,1-8.59,1.17c-2.73.19-5.4.25-8,.27l-7.55,0-15.18.09-62,.36Z" transform="translate(-214.01 -20.2)"/><path class="cls-1" d="M351.23,214.59c0-41.27.18-82.53-.08-123.79-.11-17.63-5.67-22.87-23.33-23q-39.7-.25-79.42,0c-17,.12-23.28,6.31-23.3,23.43q-.18,125,0,249.94c0,16.67,6.62,23.08,23.66,23.2q40.29.28,80.59,0c16.93-.13,23-6.42,23.05-23.65.12-42.05,0-84.1,0-126.14Z" transform="translate(-214.01 -20.2)"/><path class="cls-2" d="M215.41,176c-.49-22.75-.83-45.53-1-68q-.06-8.41-.13-16.75A60,60,0,0,1,215,81.1a31.67,31.67,0,0,1,4.49-11.78c.34-.49.63-1,1-1.47l1.19-1.41a20.62,20.62,0,0,1,2.65-2.55,21.32,21.32,0,0,1,2.91-2.09,23,23,0,0,1,3-1.6,38,38,0,0,1,11.18-2.93c1.67-.16,3.37-.32,4.93-.34l1.2,0c.4,0,.8,0,1.12,0h10.09c21.42.06,42.14.24,61.79.52l7.33.12a68.71,68.71,0,0,1,8.45.66,34.25,34.25,0,0,1,9.55,2.65,18.26,18.26,0,0,1,2.55,1.32l1.27.81a9.18,9.18,0,0,1,1.23.9A26.9,26.9,0,0,1,353.31,66c.69.78,1.38,1.57,2,2.38a26.85,26.85,0,0,1,4.25,9.82c.15.76.31,1.51.46,2.26l.27,2.12c.21,1.44.21,2.7.3,4s0,2.54.05,3.8l-.07,3.34c-.06,2.19-.12,4.35-.17,6.5-1.9,68.58-5.28,114.38-9.16,114.38s-7.33-45.78-9.32-114.28q-.09-3.21-.18-6.48c0-1.08-.07-2.16-.1-3.25s-.09-1.94-.18-2.85-.16-1.86-.34-2.64l-.2-1.23-.29-1.06a7.53,7.53,0,0,0-1.21-2.67,4,4,0,0,0-1.57-.91,15.61,15.61,0,0,0-4.14-.87,54.21,54.21,0,0,0-5.91-.24l-7.29.11c-19.59.29-40.23.47-61.58.53l-8,0h-2l-.91,0-.83,0c-1.14,0-2.14.13-3.17.2a16.9,16.9,0,0,0-4.59,1.1,3.41,3.41,0,0,0-1.65,1.28,10.28,10.28,0,0,0-1.26,3.6,41.58,41.58,0,0,0-.53,6.35q-.06,8.34-.12,16.75c-.21,22.42-.55,45.19-1,67.94-1,46.77-2,86.15-2.89,121.93-.23,8.94-.46,17.66-.68,26.21q-.16,6.42-.33,12.72a62.46,62.46,0,0,0,.28,11.41,17,17,0,0,0,1.33,4.44,9.05,9.05,0,0,0,2.38,3.18c2,1.74,5.16,2.82,8.71,3.34.9.09,1.79.23,2.72.3s1.84.12,2.82.16l6.07.15,12.12.3,49.14,1.17,12.66.27a33.82,33.82,0,0,0,11.79-1.49,13.65,13.65,0,0,0,4.68-2.87,13.85,13.85,0,0,0,3-4.78l.51-1.42.37-1.5c.28-1,.38-2.07.58-3.1s.25-2.14.3-3.24.12-2.17.13-3.33c.71-36.53,1.37-77,2-125.3h0l-1.2,0h1.22v0c.57,48.27,1.2,88.78,1.89,125.31,0,1.13,0,2.34,0,3.49s-.13,2.36-.19,3.53-.24,2.36-.52,3.54l-.37,1.77-.55,1.75a16.76,16.76,0,0,1-10,10.76,38.83,38.83,0,0,1-13.58,2.4l-12.68.28-49.2,1.18-12.14.3-6.09.16c-1,0-2.17,0-3.25,0s-2.23-.13-3.35-.19-2.29-.28-3.44-.48a29.44,29.44,0,0,1-3.54-.87,22,22,0,0,1-7-3.54,19.51,19.51,0,0,1-5.35-6.28,27.33,27.33,0,0,1-2.65-7.25,71,71,0,0,1-1.14-13.52q-.17-6.3-.33-12.71c-.22-8.56-.44-17.28-.67-26.22C217.39,262.19,216.43,222.81,215.41,176Z" transform="translate(-214.01 -20.2)"/><path class="cls-1" d="M393.2,209.9q0,64.24,0,128.51c0,20,5.87,25.84,25.59,26h3.5c27.58,0,31.18-3.5,31.19-30.68,0-25.31-.09-50.62,0-75.94.09-17.22,6-23,23.22-23.24,7.79-.1,15.58.19,23.36-.1,11.75-.43,18.71-6.53,18.72-17.9q.06-70.66-.79-141.35c-.17-13.22-6.62-19.4-19.76-19.58q-42.63-.57-85.28,0c-13.86.2-19.68,7.41-19.74,23.37-.16,41.28-.06,82.56-.06,123.84Z" transform="translate(-214.01 -20.2)"/><path class="cls-2" d="M501.52,244.11l-.7,0c-.24,0-.45,0-.63.05l-1.13.06-2.25.09-4.45.13-8.66.12-4.2.07c-1.38,0-2.81.06-3.95.14s-2.33.19-3.46.3a25.83,25.83,0,0,0-2.89.58c-.2.06-.46.1-.62.17l-.52.2c-.16.07-.36.12-.5.18a3.47,3.47,0,0,1-.37.21c-.12.07-.28.11-.37.18a1.55,1.55,0,0,1-.24.19c-.21.09-.27.24-.39.33l-.1.07s0,.07,0,.1a.65.65,0,0,1-.15.18c-.11.1-.16.35-.29.48s-.18.49-.32.72-.19.67-.31,1a30,30,0,0,0-.74,5.91c-.06,2.16,0,5.27,0,8,.19,22.55.25,44.76.18,66.26,0,1.34,0,2.68,0,4s0,2.8-.05,4.2c-.07,2.83-.18,5.71-.49,8.78a45.63,45.63,0,0,1-2,10.11c-.29.92-.72,1.92-1.13,2.88a25.79,25.79,0,0,1-1.65,3,23,23,0,0,1-4.91,5.51,25,25,0,0,1-5.92,3.46,33.43,33.43,0,0,1-5.46,1.7,60.34,60.34,0,0,1-9.23,1.17c-2.84.16-5.54.2-8.15.19l-3.88,0-1.91,0h-1l-1,0c-1.39-.08-2.73-.09-4.19-.25l-2.14-.19c-.72-.07-1.49-.21-2.23-.32a37.2,37.2,0,0,1-9.54-2.65c-.85-.41-1.68-.77-2.52-1.25s-1.69-1.07-2.51-1.63a24.05,24.05,0,0,1-4.41-4.26,26.4,26.4,0,0,1-4.88-9.81l-.33-1.18-.22-1.12-.42-2.23c-.17-1.4-.35-2.82-.45-4.17s-.15-2.66-.16-3.92,0-2.49,0-3.73q.18-6.72.34-13.19c1.94-69,5.34-115,9.23-115s7.3,46.06,9.25,115q.18,6.46.35,13.19c.05,1,.09,2,.14,3s.18,1.91.25,2.88.28,1.78.41,2.65l.29,1.17.13.58.18.48a6.21,6.21,0,0,0,1.39,2.64,4.23,4.23,0,0,0,2,1.19,18,18,0,0,0,4.44,1c.47.05.9.13,1.4.16l1.51.08c1,.09,2.11.06,3.18.09h1.71l1.81,0,3.6-.07c2.39-.05,4.72-.15,6.93-.33a39.2,39.2,0,0,0,5.9-.84,12.24,12.24,0,0,0,1.88-.61,3.61,3.61,0,0,0,.74-.44,2.18,2.18,0,0,0,.21-.31c.06-.07.12-.27.21-.42a7.67,7.67,0,0,0,.27-.78,25.51,25.51,0,0,0,.91-5.36c.2-2.19.28-4.62.32-7.12,0-1.27,0-2.54,0-3.81s0-2.68,0-4c-.05-21.52,0-43.76.24-66.34,0-2.89,0-5.43.18-8.93a48,48,0,0,1,1.76-10.87c.35-1,.66-2,1.08-3s.95-2.08,1.55-3.11a28,28,0,0,1,2.1-3c.41-.49.82-1,1.25-1.44.22-.23.43-.47.65-.69l.71-.64a21.56,21.56,0,0,1,3-2.28l1.56-1c.52-.3,1-.51,1.55-.76l1.57-.71c.51-.2,1-.35,1.51-.52l1.51-.49c.51-.16,1-.24,1.44-.36a45.76,45.76,0,0,1,5.54-.93c1.71-.13,3.46-.28,5.08-.28s3.15,0,4.62,0l4.38.09,8.51.2,4.13,0H500l.38,0a16,16,0,0,0,5.24-.91,6.24,6.24,0,0,0,2.69-1.88,8.22,8.22,0,0,0,1.35-3.69,10.57,10.57,0,0,0,.13-1.31l0-.34c0-.11,0-.33,0-.49l0-1c0-1.38.05-2.75.07-4.11.19-10.91.38-21.41.56-31.57.39-20.32.75-39.25,1.09-57.27q.27-13.52.53-26.41.13-6.47.26-12.82.06-3.17.13-6.32c0-.51,0-1.09,0-1.54l0-1.33a10.8,10.8,0,0,0-.08-1.3,12.72,12.72,0,0,0-.12-1.27,15.37,15.37,0,0,0-1.2-4.42,8.63,8.63,0,0,0-2.34-3.17,12,12,0,0,0-3.75-2,22.09,22.09,0,0,0-4.92-1c-1.68-.15-3.85-.21-5.87-.29l-6.11-.22-12.22-.41c-16.29-.51-32.64-.89-49.52-1.1l-12.77-.12c-1.06,0-2,0-3,.07a25,25,0,0,0-2.9.38,14.54,14.54,0,0,0-5.23,1.93c-3.09,1.91-5.14,5.35-6.06,9.43a38,38,0,0,0-.94,6.33c-.12,2.16-.15,4.47-.2,6.77-.71,36.87-1.39,77.78-2,126.57-.58-48.79-1.19-89.7-1.88-126.58-.09-4.54-.28-9.33.72-14.06a30.71,30.71,0,0,1,.94-3.53l.69-1.73c.23-.57.58-1.12.86-1.68a17,17,0,0,1,5.14-5.64,19.38,19.38,0,0,1,6.85-2.9,30.74,30.74,0,0,1,3.51-.62c1.14-.1,2.35-.18,3.43-.23l12.79-.44c16.91-.54,33.3-.94,49.64-1.24l12.25-.2,6.14-.09c2.07,0,4-.08,6.4,0a31.77,31.77,0,0,1,7.17,1.1,21.87,21.87,0,0,1,7.21,3.5,19,19,0,0,1,5.4,6.41A26,26,0,0,1,523,69.41c.14.62.19,1.22.28,1.83s.18,1.23.2,1.83l.12,1.8c0,.6,0,1.07.07,1.61.06,2.11.13,4.21.19,6.33q.21,6.36.41,12.82c.26,8.63.54,17.42.82,26.44.54,18,1.12,37,1.73,57.33.29,10.18.6,20.7.91,31.62l.12,4.12,0,1v1.24a27.73,27.73,0,0,1-.14,2.85,26.79,26.79,0,0,1-4,12.09,25,25,0,0,1-10.42,8.86A34.8,34.8,0,0,1,501.52,244.11Z" transform="translate(-214.01 -20.2)"/><path class="cls-1" d="M852.74,133.3c0-26.5.07-53,0-79.5-.07-16.36-6.14-22.53-22.71-22.66q-40.34-.29-80.67,0c-15.79.11-22.24,6.3-22.29,21.89q-.27,80.09,0,160.17c0,15,6.46,21.24,21.51,21.32q40.92.21,81.84,0c16.25-.07,22.28-6.25,22.35-22.9C852.84,185.53,852.75,159.41,852.74,133.3Z" transform="translate(-214.01 -20.2)"/><path class="cls-2" d="M717.34,99.81Q717,86.7,716.71,73.6q-.11-6.54-.23-13l-.09-6.5c0-1,0-2.43,0-3.71s.19-2.73.3-4.08l.33-2.16.18-1.08.28-1.13c.19-.76.35-1.5.6-2.27s.55-1.57.84-2.35a25.3,25.3,0,0,1,15.23-14.63,37,37,0,0,1,8.67-2c1.31-.12,2.69-.31,3.93-.32s2.61-.1,3.57-.09h6.3l12.44,0c16.47.05,32.39.23,47.49.52l11.17.23,1.38,0c.47,0,.87,0,1.44,0,1.07.06,2.11.1,3.18.18s2.19.23,3.29.37,2.26.38,3.42.64a31.46,31.46,0,0,1,7.2,2.55,24.23,24.23,0,0,1,6.89,5.07,22.61,22.61,0,0,1,2.61,3.42c.36.59.76,1.19,1.06,1.78l.82,1.79.39.9.29.87.55,1.73c.33,1.14.51,2.21.75,3.32s.28,2.08.41,3.11.12,2,.18,2.95,0,1.87,0,2.8l0,1.36-.05,1.19q-.21,4.72-.41,9.23c-.28,6-.59,11.71-.91,17.06-.65,10.71-1.37,20-2.16,27.75-1.57,15.38-3.39,24.18-5.34,24.18s-3.77-8.79-5.36-24.17c-.79-7.68-1.53-17-2.18-27.71-.33-5.35-.65-11-.93-17q-.21-4.5-.42-9.22L843.8,54l-.08-1c-.07-.66-.08-1.37-.18-2s-.16-1.28-.26-1.89-.25-1.15-.37-1.73-.3-1-.47-1.5c-.1-.2-.19-.41-.27-.62l-.12-.32-.16-.24-.27-.49c-.09-.15-.2-.23-.29-.36s-.4-.38-.55-.58a5.45,5.45,0,0,0-1.55-.85,14.09,14.09,0,0,0-2.79-.74c-.58-.09-1.24-.14-1.85-.23l-2.08-.12h-2.24c-.34,0-.85,0-1.29,0l-1.37,0-11.13.24c-15.05.29-30.91.47-47.31.53l-12.4,0H750.5c-1.14,0-1.88,0-2.73,0s-1.58.12-2.37.16a16.66,16.66,0,0,0-3.7.78,5,5,0,0,0-1.79.94,4.49,4.49,0,0,0-1,1.48A15.72,15.72,0,0,0,738,49c-.05.79-.19,1.51-.22,2.37s-.1,1.58-.1,2.77l-.09,6.49q-.12,6.51-.24,13-.26,13.06-.63,26.19c-1,36-2,66.33-2.9,93.87-.23,6.85-.44,13.53-.66,20.09a25.56,25.56,0,0,0,.83,7.82,9,9,0,0,0,3.25,5,15.23,15.23,0,0,0,6.55,2.5c.66.12,1.35.19,2,.28s1.4.11,2.1.17,1.51.07,2.28.1l2.34.08,18.7.62,37.86,1.17,19.7.56c1.7.05,3.28.06,4.9,0,.79-.06,1.61-.07,2.4-.17s1.59-.17,2.35-.34a14.55,14.55,0,0,0,8.09-3.95l.76-.84c.23-.31.43-.64.65-1l.33-.48c.1-.17.18-.35.27-.53l.54-1.07c.28-.76.6-1.51.83-2.32s.47-1.61.59-2.47a61.63,61.63,0,0,0,.82-10.73c.16-7.47.33-15.18.5-23.17.29-16,.61-33.12.94-51.75.33,18.63.63,35.76.92,51.75.16,8,.33,15.71.48,23.18a65.66,65.66,0,0,1-.36,11.28c-.08.94-.36,1.88-.53,2.82s-.55,1.86-.85,2.78l-.6,1.35c-.1.22-.19.45-.31.67l-.38.64c-.26.43-.51.86-.79,1.27l-1,1.18a7.59,7.59,0,0,1-1,1.08c-.38.33-.72.71-1.13,1a17.86,17.86,0,0,1-2.5,1.59c-.43.22-.86.47-1.3.65l-1.34.52a24.49,24.49,0,0,1-2.7.81A50.36,50.36,0,0,1,828.79,237l-19.71.55-37.89,1.17-18.72.61-2.35.08c-.8,0-1.53.07-2.43.05s-1.72,0-2.61,0-1.77-.09-2.68-.18a25.82,25.82,0,0,1-11.26-3.64,19.27,19.27,0,0,1-2.66-2c-.42-.36-.78-.8-1.18-1.2a11.91,11.91,0,0,1-1.09-1.28,20.26,20.26,0,0,1-1.8-2.78c-.25-.48-.53-1-.74-1.44l-.59-1.46A36.51,36.51,0,0,1,720.94,214c-.23-6.62-.46-13.36-.7-20.28C719.33,166.19,718.36,135.86,717.34,99.81Z" transform="translate(-214.01 -20.2)"/><path class="cls-1" d="M560.41,140.2c0,24.12-.13,48.25,0,72.37.11,16,6,21.91,21.8,22q40.86.17,81.71,0c15.71-.07,21.88-6,21.84-22q-.21-74.68-1.07-149.39c-.14-12.87-6.54-19.45-19.57-19.63q-42.6-.57-85.2,0c-13.34.16-19.31,6.73-19.46,20.88C560.23,89.62,560.42,114.91,560.41,140.2Z" transform="translate(-214.01 -20.2)"/><path class="cls-2" d="M695.16,169.55q.47,12.58.81,25.16.16,6.27.32,12.52l.08,3.12c0,1.07.06,2,0,3.31s0,2.46-.13,3.78c0,.66-.08,1.3-.15,2l-.29,2-.15,1-.23,1.08-.52,2.16a31.68,31.68,0,0,1-1.72,4.56,26.51,26.51,0,0,1-2.74,4.56c-.59.72-1.2,1.43-1.83,2.12s-1.36,1.27-2.06,1.88a27.15,27.15,0,0,1-9,4.77,39.76,39.76,0,0,1-8.2,1.59l-1.91.17-1.82.07-1.79,0h-7.55l-11.93,0c-15.79-.06-31-.24-45.53-.52l-10.71-.24-5.24-.13-.65,0-.75,0-1.53-.08c-1,0-2.05-.16-3.1-.27s-2.13-.29-3.21-.49a32.86,32.86,0,0,1-3.35-.79l-.84-.23-.87-.32-1.74-.66a17.71,17.71,0,0,1-1.77-.84,16.72,16.72,0,0,1-1.74-1A23.19,23.19,0,0,1,560,237.4a18.82,18.82,0,0,1-1.5-1.46c-.46-.52-.91-1.06-1.34-1.6a14.07,14.07,0,0,1-1.15-1.66c-.34-.56-.7-1.13-1-1.7l-.78-1.7a14.21,14.21,0,0,1-.66-1.68,38.41,38.41,0,0,1-1.91-11.9c0-.88,0-1.74,0-2.61,0-.45,0-.8,0-1.18l0-1.11q.11-2.22.21-4.38c.28-5.77.59-11.24.91-16.38.65-10.28,1.38-19.25,2.16-26.63,1.58-14.77,3.4-23.21,5.34-23.21s3.77,8.44,5.36,23.19c.79,7.37,1.53,16.32,2.18,26.58.33,5.13.64,10.59.93,16.35.07,1.43.15,2.89.22,4.37l0,1.11c0,.36,0,.76.06,1,0,.63.11,1.26.16,1.9a21.41,21.41,0,0,0,1.48,6.26,2.11,2.11,0,0,0,.26.5c.1.15.18.3.26.45s.19.21.27.33.15.24.26.29a2.73,2.73,0,0,1,.25.23c.07.09.2.11.28.19a4.3,4.3,0,0,0,.65.37,15.89,15.89,0,0,0,5.65,1.1c.65,0,1.28.08,2,.06h1.59l.65,0,5.23-.13,10.69-.24c14.45-.28,29.68-.46,45.43-.52l11.9,0h7.53l1.24,0,1.21,0,1.12-.1c.78,0,1.4-.17,2.08-.25a6.12,6.12,0,0,0,.88-.19,7.37,7.37,0,0,0,2.63-1,2.35,2.35,0,0,0,.85-1.08,9.82,9.82,0,0,0,.51-1.2c.06-.29.13-.57.21-.85l.12-.43.08-.51.18-1,.11-1.14c.1-.74.12-1.58.15-2.42s0-1.91.06-2.92l0-3.12q.07-6.24.14-12.51.18-12.54.45-25.13c.78-34.55,1.53-63.64,2.26-90.07.09-3.3.18-6.57.27-9.79,0-1.62.09-3.22.13-4.82l0-1.19,0-.6v-.49c0-.65,0-1.33,0-1.94a16.09,16.09,0,0,0-1.55-6.52,9.08,9.08,0,0,0-4.14-3.9,19.49,19.49,0,0,0-6.92-1.67c-.34,0-.62-.07-1-.08l-1.13,0-2.26-.08L657,48.3,639,47.68l-36.29-1.19-18.9-.56-2.42-.07c-.81,0-1.63,0-2.37,0a21.31,21.31,0,0,0-2.27.1l-1.14.09-1.1.19a17.22,17.22,0,0,0-4.23,1.25,13.09,13.09,0,0,0-3.55,2.43,16.26,16.26,0,0,0-4,8.18,53.35,53.35,0,0,0-.83,10.25c-.17,7.17-.34,14.57-.52,22.24-.3,15.34-.63,31.77-1,49.64-.32-17.88-.6-34.31-.87-49.66-.16-7.67-.32-15.07-.47-22.24a57.39,57.39,0,0,1,.38-10.85A19.81,19.81,0,0,1,564,47.24a17.24,17.24,0,0,1,4.52-3.48,21.75,21.75,0,0,1,5.18-1.86l1.31-.29,1.31-.18a23.36,23.36,0,0,1,2.6-.26c.88-.08,1.69-.09,2.49-.11l2.42-.07,18.92-.55,36.38-1.15,18-.61,4.52-.16,2.27-.07,1.13,0c.37,0,.85,0,1.27,0a30.1,30.1,0,0,1,10.85,1.92,20.38,20.38,0,0,1,9.68,7.91,27.47,27.47,0,0,1,3.83,11.31c.16,1,.18,1.86.26,2.8l0,.7,0,.59,0,1.2c.07,1.59.14,3.2.21,4.81q.19,4.84.41,9.79C692.72,105.87,693.9,135,695.16,169.55Z" transform="translate(-214.01 -20.2)"/></svg>